<svg id="Layer_1" enable-background="new 0 0 512 512" height="512" viewBox="0 0 512 512" width="512" xmlns="http://www.w3.org/2000/svg"><g><g><path d="m454.8 471.367v-430.734c0-18.299-14.834-33.133-33.133-33.133h-331.334c-18.299 0-33.133 14.834-33.133 33.133v430.733c0 18.299 14.834 33.133 33.133 33.133h331.333c18.3.001 33.134-14.833 33.134-33.132z" fill="#e9efff"/><path d="m421.667 7.5h-22.995c18.296.003 33.128 14.836 33.128 33.133v430.733c0 18.299-14.834 33.133-33.133 33.133h23c18.299 0 33.133-14.834 33.133-33.133v-430.733c0-18.299-14.834-33.133-33.133-33.133z" fill="#d3dcfb"/><path d="m90.333 504.5h331.333c18.299 0 33.133-14.834 33.133-33.133v-364.467h-397.599v364.467c0 18.299 14.834 33.133 33.133 33.133z" fill="#368df6"/><ellipse cx="106.9" cy="57.2" fill="#fd3d54" rx="16.567" ry="16.567" transform="matrix(.23 -.973 .973 .23 26.67 148.099)"/><ellipse cx="173.167" cy="57.2" fill="#89e56a" rx="16.567" ry="16.567" transform="matrix(.16 -.987 .987 .16 88.967 218.968)"/><ellipse cx="239.433" cy="57.2" fill="#ffc55e" rx="16.567" ry="16.567" transform="matrix(.707 -.707 .707 .707 29.682 186.058)"/><path d="m413.667 272.567h-315.334c-4.418 0-8-3.582-8-8v-83.4c0-4.418 3.582-8 8-8h315.333c4.418 0 8 3.582 8 8v83.4c.001 4.418-3.581 8-7.999 8z" fill="#e9efff"/><path d="m413.667 438.233h-315.334c-4.418 0-8-3.582-8-8v-83.4c0-4.418 3.582-8 8-8h315.333c4.418 0 8 3.582 8 8v83.4c.001 4.418-3.581 8-7.999 8z" fill="#e9efff"/><path d="m431.8 106.9v364.467c0 18.299-14.834 33.133-33.133 33.133h23c18.299 0 33.133-14.834 33.133-33.133v-364.467z" fill="#336fe7"/><path d="m98.333 173.167c-4.418 0-8 3.582-8 8v83.4c0 4.418 3.582 8 8 8h91.4v-99.4z" fill="#65e1a3"/><path d="m413.667 173.167h-23c4.418 0 8 3.582 8 8v83.4c0 4.418-3.582 8-8 8h23c4.418 0 8-3.582 8-8v-83.4c0-4.419-3.582-8-8-8z" fill="#d3dcfb"/><path d="m98.333 338.833c-4.418 0-8 3.582-8 8v83.4c0 4.418 3.582 8 8 8h91.4v-99.4z" fill="#65e1a3"/><g fill="#d3dcfb"><path d="m413.667 338.833h-23c4.418 0 8 3.582 8 8v83.4c0 4.418-3.582 8-8 8h23c4.418 0 8-3.582 8-8v-83.4c0-4.418-3.582-8-8-8z"/><path d="m369.06 408.643-38.102-3.464c-4.93-.448-9.06 3.682-8.612 8.612l3.464 38.102c.608 6.693 8.747 9.639 13.499 4.887 3.095-3.095 8.114-3.095 11.21 0l12.219 12.219c3.095 3.095 8.114 3.095 11.21 0l12.219-12.219c3.096-3.095 3.096-8.114 0-11.21l-12.219-12.219c-3.095-3.095-3.095-8.114 0-11.21 4.751-4.751 1.805-12.89-4.888-13.498z"/></g></g><g><path d="m421.667 0h-331.334c-22.405 0-40.633 18.228-40.633 40.633v430.733c0 22.406 18.228 40.634 40.633 40.634h331.334c22.405 0 40.633-18.228 40.633-40.633v-430.734c0-22.405-18.228-40.633-40.633-40.633zm-331.334 15h331.334c14.134 0 25.633 11.499 25.633 25.633v58.767h-382.6v-58.767c0-14.134 11.499-25.633 25.633-25.633zm331.334 482h-331.334c-14.134 0-25.633-11.499-25.633-25.633v-356.967h382.6v356.967c0 14.134-11.499 25.633-25.633 25.633z"/><path d="m106.9 81.267c13.271 0 24.066-10.796 24.066-24.066s-10.795-24.068-24.066-24.068-24.067 10.797-24.067 24.067 10.797 24.067 24.067 24.067zm0-33.134c4.999 0 9.066 4.067 9.066 9.067 0 4.999-4.067 9.066-9.066 9.066-5 0-9.067-4.067-9.067-9.066s4.067-9.067 9.067-9.067z"/><path d="m173.167 81.267c13.27 0 24.066-10.796 24.066-24.066s-10.796-24.067-24.066-24.067c-13.271 0-24.067 10.796-24.067 24.067s10.796 24.066 24.067 24.066zm0-33.134c4.999 0 9.066 4.067 9.066 9.067 0 4.999-4.067 9.066-9.066 9.066-5 0-9.067-4.067-9.067-9.066s4.067-9.067 9.067-9.067z"/><path d="m239.434 81.267c13.271 0 24.066-10.796 24.066-24.066s-10.796-24.067-24.066-24.067-24.066 10.796-24.066 24.067 10.795 24.066 24.066 24.066zm0-33.134c4.999 0 9.066 4.067 9.066 9.067 0 4.999-4.067 9.066-9.066 9.066s-9.066-4.067-9.066-9.066c-.001-4.999 4.067-9.067 9.066-9.067z"/><path d="m413.667 165.667h-315.334c-8.547 0-15.5 6.953-15.5 15.5v83.4c0 8.547 6.953 15.5 15.5 15.5h315.334c8.547 0 15.5-6.953 15.5-15.5v-83.4c0-8.547-6.953-15.5-15.5-15.5zm-315.834 98.9v-83.4c0-.276.225-.5.5-.5h83.9v84.4h-83.9c-.275 0-.5-.224-.5-.5zm316.334 0c0 .276-.225.5-.5.5h-216.434v-84.4h216.434c.275 0 .5.224.5.5z"/><path d="m148.316 215.367h-16.566c-4.143 0-7.5 3.358-7.5 7.5s3.357 7.5 7.5 7.5h16.566c4.143 0 7.5-3.358 7.5-7.5s-3.357-7.5-7.5-7.5z"/><path d="m222.867 213.8h33.133c4.143 0 7.5-3.358 7.5-7.5s-3.357-7.5-7.5-7.5h-33.133c-4.143 0-7.5 3.358-7.5 7.5s3.358 7.5 7.5 7.5z"/><path d="m322.267 231.933h-99.399c-4.143 0-7.5 3.358-7.5 7.5s3.357 7.5 7.5 7.5h99.399c4.143 0 7.5-3.358 7.5-7.5s-3.358-7.5-7.5-7.5z"/><path d="m388.533 231.933h-33.133c-4.143 0-7.5 3.358-7.5 7.5s3.357 7.5 7.5 7.5h33.133c4.143 0 7.5-3.358 7.5-7.5s-3.357-7.5-7.5-7.5z"/><path d="m413.383 331.333h-314.766c-8.703 0-15.784 7.08-15.784 15.783v82.833c0 8.703 7.081 15.784 15.784 15.784h219.102l.622 6.839c.547 6.025 4.422 11.048 10.111 13.108 5.689 2.058 11.881.682 16.16-3.597.165-.165.436-.167.603 0l12.22 12.22c3.007 3.007 6.957 4.51 10.907 4.51s7.901-1.504 10.909-4.511l12.219-12.219c2.913-2.914 4.518-6.788 4.518-10.908 0-1.891-.353-3.724-1-5.442h18.396c8.703 0 15.784-7.081 15.784-15.784v-82.833c-.001-8.702-7.082-15.783-15.785-15.783zm-315.55 98.617v-82.833c0-.432.352-.783.784-.783h83.616v84.4h-83.616c-.432-.001-.784-.352-.784-.784zm283.029 21.527-12.218 12.219c-.168.167-.438.167-.604 0l-12.219-12.219c-3.008-3.007-6.958-4.511-10.909-4.511-3.95 0-7.9 1.504-10.908 4.511-.102.103-.189.192-.446.099-.255-.092-.267-.217-.28-.362l-3.464-38.103c-.006-.064-.018-.199.123-.34.143-.142.276-.129.341-.123l38.103 3.463c.145.013.271.025.362.28.093.255.004.344-.1.447-6.015 6.015-6.015 15.802 0 21.816l12.219 12.219c.167.167.167.437 0 .604zm33.305-21.527c0 .432-.352.784-.784.784h-31.447l-2.685-2.685c-.167-.167-.167-.437 0-.604 3.951-3.951 5.421-9.533 4.002-14.845h5.28c4.143 0 7.5-3.358 7.5-7.5s-3.357-7.5-7.5-7.5h-24.85c-2.226 0-4.219.975-5.592 2.515l-26.456-2.405c-4.564-.416-9.057 1.208-12.305 4.455-3.247 3.247-4.87 7.732-4.454 12.305l1.478 16.264h-119.121v-84.4h216.149c.433 0 .784.352.784.783v82.833z"/><path d="m148.316 381.033h-16.566c-4.143 0-7.5 3.358-7.5 7.5s3.357 7.5 7.5 7.5h16.566c4.143 0 7.5-3.358 7.5-7.5s-3.357-7.5-7.5-7.5z"/><path d="m222.867 379.467h33.133c4.143 0 7.5-3.358 7.5-7.5s-3.357-7.5-7.5-7.5h-33.133c-4.143 0-7.5 3.358-7.5 7.5s3.358 7.5 7.5 7.5z"/><path d="m305.7 397.6h-82.833c-4.143 0-7.5 3.358-7.5 7.5s3.357 7.5 7.5 7.5h82.833c4.143 0 7.5-3.358 7.5-7.5s-3.357-7.5-7.5-7.5z"/></g></g></svg>