<?xml version="1.0" encoding="utf-8"?>
<!-- Generator: Adobe Illustrator 24.0.0, SVG Export Plug-In . SVG Version: 6.00 Build 0)  -->
<svg version="1.1" id="Capa_1" xmlns="http://www.w3.org/2000/svg" xmlns:xlink="http://www.w3.org/1999/xlink" x="0px" y="0px"
	 viewBox="0 0 495 590" style="enable-background:new 0 0 495 590;" xml:space="preserve">
<style type="text/css">
	.st0{fill:#FFFFFF;}
	.st1{font-family:'BerlinSansFB-Reg';}
	.st2{font-size:103px;}
</style>
<title>recipeasy-white</title>
<path class="st0" d="M472.3,29.5c-67.8,29.2-128.2,73.2-176.8,128.8H333c43.7-44.7,95.8-80.3,153.3-104.8
	C502.7,46.4,488.5,22.5,472.3,29.5z"/>
<path class="st0" d="M283.8,172.1H0c0,135.5,109.9,245.4,245.4,245.4s245.4-109.9,245.4-245.4H283.8z"/>
<rect y="445.3" class="st0" width="490.9" height="41.6"/>
<path class="st0" d="M167.4,104.3c0.3-0.6,0.4-1.2,0.6-1.7c0.3-0.5,0.5-1.1,0.9-1.6s0.4-1,0.9-1.4s0.7-0.9,1-1.3s0.7-0.8,1.1-1.2
	c0.4-0.3,0.7-0.7,1-1.1c0.9-0.7,1.7-1.4,2.4-2.2c1-0.7,2-1.5,2.9-2.3c1-0.5,1.9-1.1,2.6-1.8c0.4-0.3,0.8-0.6,1.2-0.8l1.4-1
	c0.9-0.7,1.8-1.3,2.8-2l2-1.5l3.5-2.7c4.8-4.1,9-8.9,12.4-14.2c3.5-5.5,5.8-11.6,7-18.1c1-5.8,0.9-11.8-0.3-17.6
	c-1-4.8-2.8-9.4-5.3-13.6C202,12,197.2,7,191.5,3.3c-1.6-1-3.3-1.9-5-2.6c-0.6-0.3-1.3-0.5-1.9-0.7c0,0,0,0.7-0.1,2
	s-0.2,3.1-0.3,5.3c-0.3,5.4-0.9,10.8-2,16.2c-0.6,2.8-1.4,5.6-2.6,8.3c-1,2.4-2.2,4.6-3.8,6.7c-1.4,1.9-3,3.8-4.7,5.5
	c-1.8,1.8-3.8,3.7-6.1,5.7l-1.8,1.5l-0.5,0.4l-0.1,0.1l-1,0.8l-0.1,0.1l-0.3,0.3l-1.3,1.1c-0.9,0.8-1.7,1.5-2.5,2.3l-1.2,1.2
	c-0.6,0.4-1.1,0.9-1.6,1.4c-2.3,2.6-4.5,5.2-6.5,7.8c-1.7,2.8-3.2,5.6-4.6,8.3c-0.6,1.5-1.1,3.1-1.6,4.6s-1,3-1.3,4.6
	s-0.5,3.2-0.6,4.8c-0.1,0.8-0.1,1.5-0.2,2.3s0,1.6,0.1,2.3c0,2.9,0.5,5.8,1.3,8.6c0.4,1.3,0.7,2.6,1.2,3.8s1,2.3,1.6,3.4
	c1,2,2.3,3.9,3.7,5.7c1.2,1.5,2.6,2.9,4,4.2c1.3,1.1,2.6,2.1,3.9,3c1.2,0.7,2.4,1.4,3.6,2c1.7,0.8,3.5,1.5,5.4,2
	c0.7,0.2,1.3,0.3,2,0.4c0,0-0.1-0.7-0.3-2s-0.3-3.1-0.4-5.3c0-1-0.1-2.2-0.1-3.5s0.1-2.5,0.1-3.8
	C166.1,109.4,166.6,106.8,167.4,104.3z"/>
<path class="st0" d="M246.9,104.3c0.3-0.6,0.4-1.2,0.6-1.7c0.3-0.5,0.6-1.1,0.9-1.6c0.4-0.5,0.4-1,0.9-1.4s0.7-0.9,1-1.3
	s0.7-0.8,1.1-1.2c0.4-0.3,0.7-0.7,1-1.1c0.9-0.7,1.7-1.4,2.4-2.2c1-0.7,2-1.5,2.9-2.3c1-0.5,1.9-1.1,2.6-1.8
	c0.3-0.3,0.7-0.6,1.1-0.8l1.4-1c0.9-0.7,1.8-1.3,2.7-2l2-1.5l3.5-2.7c4.8-4.1,9-8.9,12.4-14.2c3.5-5.5,5.9-11.6,7-18.1
	c1-5.8,0.9-11.8-0.3-17.6c-1-4.8-2.8-9.4-5.3-13.6c-3.4-5.9-8.2-10.9-14-14.6c-1.6-1-3.3-1.9-5-2.6c-0.6-0.3-1.3-0.5-1.9-0.7
	c0,0,0,0.7-0.1,2s-0.2,3.1-0.3,5.3c-0.3,5.4-0.9,10.8-2,16.2c-0.6,2.8-1.5,5.6-2.6,8.3c-1,2.4-2.2,4.6-3.8,6.7
	c-1.4,1.9-3,3.8-4.7,5.5c-1.8,1.8-3.8,3.7-6.1,5.7l-1.8,1.5l-0.5,0.4l-0.1,0.1l-1,0.8l-0.1,0.1l-0.3,0.3l-1.3,1.1
	c-0.9,0.8-1.7,1.5-2.5,2.3l-1.2,1.2c-0.5,0.4-1,0.9-1.4,1.4c-2.3,2.6-4.5,5.2-6.5,7.8c-1.7,2.8-3.2,5.6-4.6,8.3
	c-0.6,1.5-1.1,3.1-1.6,4.6s-1,3-1.3,4.6s-0.5,3.2-0.6,4.8c-0.1,0.8-0.1,1.5-0.2,2.3s0,1.6,0.1,2.3c0,2.9,0.5,5.8,1.3,8.6
	c0.4,1.3,0.7,2.6,1.2,3.8s1,2.3,1.6,3.4c1,2,2.3,3.9,3.7,5.7c1.2,1.5,2.6,2.9,4,4.2c1.3,1.1,2.6,2.1,3.9,3c1.2,0.7,2.4,1.4,3.6,2
	c1.7,0.8,3.5,1.5,5.4,2c0.7,0.2,1.3,0.3,2,0.4c0,0-0.1-0.7-0.3-2s-0.3-3.1-0.4-5.3c0-1-0.1-2.2-0.1-3.5s0.1-2.5,0.1-3.8
	C245.6,109.4,246.1,106.8,246.9,104.3z"/>
<text transform="matrix(1 0 0 1 33.84 571.86)" class="st0 st1 st2">RecipEasy</text>
</svg>
